<svg id="visual" viewBox="0 0 900 600" width="900" height="600" xmlns="http://www.w3.org/2000/svg" xmlns:xlink="http://www.w3.org/1999/xlink" version="1.1"><rect x="0" y="0" width="900" height="600" fill="#010e1c"></rect><path d="M0 258L12.5 258.5C25 259 50 260 75 248.3C100 236.7 125 212.3 150 192.5C175 172.7 200 157.3 225 147C250 136.7 275 131.3 300 161.7C325 192 350 258 375 291.2C400 324.3 425 324.7 450 331.7C475 338.7 500 352.3 525 329.7C550 307 575 248 600 232.3C625 216.7 650 244.3 675 243.3C700 242.3 725 212.7 750 183.7C775 154.7 800 126.3 825 147.7C850 169 875 240 887.5 275.5L900 311L900 0L887.5 0C875 0 850 0 825 0C800 0 775 0 750 0C725 0 700 0 675 0C650 0 625 0 600 0C575 0 550 0 525 0C500 0 475 0 450 0C425 0 400 0 375 0C350 0 325 0 300 0C275 0 250 0 225 0C200 0 175 0 150 0C125 0 100 0 75 0C50 0 25 0 12.5 0L0 0Z" fill="#62a1ff" stroke-linecap="round" stroke-linejoin="miter"></path></svg>